<svg xmlns="http://www.w3.org/2000/svg" xmlns:xlink="http://www.w3.org/1999/xlink" width="3429" zoomAndPan="magnify" viewBox="0 0 2571.75 1462.499957" height="1950" preserveAspectRatio="xMidYMid meet" version="1.0"><defs><g/><clipPath id="a73f59a36e"><path d="M 0.316406 0 L 2571.183594 0 L 2571.183594 1462 L 0.316406 1462 Z M 0.316406 0 " clip-rule="nonzero"/></clipPath><clipPath id="d9fa8f239d"><path d="M 922.015625 357.398438 L 1649.414062 357.398438 L 1649.414062 1084.796875 L 922.015625 1084.796875 Z M 922.015625 357.398438 " clip-rule="nonzero"/></clipPath><clipPath id="727c9e5768"><path d="M 1285.714844 357.398438 C 1084.847656 357.398438 922.015625 520.230469 922.015625 721.097656 C 922.015625 921.960938 1084.847656 1084.796875 1285.714844 1084.796875 C 1486.578125 1084.796875 1649.414062 921.960938 1649.414062 721.097656 C 1649.414062 520.230469 1486.578125 357.398438 1285.714844 357.398438 Z M 1285.714844 357.398438 " clip-rule="nonzero"/></clipPath><clipPath id="44cbc4bb5a"><path d="M 0.015625 0.398438 L 727.414062 0.398438 L 727.414062 727.796875 L 0.015625 727.796875 Z M 0.015625 0.398438 " clip-rule="nonzero"/></clipPath><clipPath id="9769f125e5"><path d="M 363.714844 0.398438 C 162.847656 0.398438 0.015625 163.230469 0.015625 364.097656 C 0.015625 564.960938 162.847656 727.796875 363.714844 727.796875 C 564.578125 727.796875 727.414062 564.960938 727.414062 364.097656 C 727.414062 163.230469 564.578125 0.398438 363.714844 0.398438 Z M 363.714844 0.398438 " clip-rule="nonzero"/></clipPath><clipPath id="a52df0313e"><rect x="0" width="728" y="0" height="728"/></clipPath><clipPath id="a7463dfc02"><path d="M 0.425781 0.84375 L 356 0.84375 L 356 691 L 0.425781 691 Z M 0.425781 0.84375 " clip-rule="nonzero"/></clipPath><clipPath id="2b0c0cc7ad"><rect x="0" width="356" y="0" height="691"/></clipPath><clipPath id="bce9987730"><path d="M 45 331 L 415.722656 331 L 415.722656 1021.695312 L 45 1021.695312 Z M 45 331 " clip-rule="nonzero"/></clipPath><clipPath id="e749eb5d96"><rect x="0" width="371" y="0" height="691"/></clipPath><clipPath id="79f389115e"><rect x="0" width="416" y="0" height="1022"/></clipPath></defs><g clip-path="url(#a73f59a36e)"><path fill="#ffffff" d="M 0.316406 0 L 2571.183594 0 L 2571.183594 1462 L 0.316406 1462 Z M 0.316406 0 " fill-opacity="1" fill-rule="nonzero"/></g><g clip-path="url(#d9fa8f239d)"><g clip-path="url(#727c9e5768)"><g transform="matrix(1, 0, 0, 1, 922, 357)"><g clip-path="url(#a52df0313e)"><g clip-path="url(#44cbc4bb5a)"><g clip-path="url(#9769f125e5)"><path fill="#5073bc" d="M 0.015625 0.398438 L 727.414062 0.398438 L 727.414062 727.796875 L 0.015625 727.796875 Z M 0.015625 0.398438 " fill-opacity="1" fill-rule="nonzero"/></g></g></g></g></g></g><g transform="matrix(1, 0, 0, 1, 1080, 217)"><g clip-path="url(#79f389115e)"><g clip-path="url(#a7463dfc02)"><g transform="matrix(1, 0, 0, 1, -0.000000000000454747, -0.000000000000056843)"><g clip-path="url(#2b0c0cc7ad)"><g fill="#ffffff" fill-opacity="1"><g transform="translate(13.188537, 538.644124)"><g><path d="M 329.375 -361.96875 C 329.375 -359.601562 329.140625 -358.1875 328.671875 -357.71875 C 329.140625 -356.769531 329.375 -355.585938 329.375 -354.171875 C 329.375 -348.503906 327.835938 -342.363281 324.765625 -335.75 C 321.703125 -329.144531 318.519531 -323.71875 315.21875 -319.46875 C 310.96875 -313.320312 308.488281 -301.628906 307.78125 -284.390625 C 307.070312 -267.160156 306.007812 -247.210938 304.59375 -224.546875 C 301.757812 -182.984375 295.851562 -147.800781 286.875 -119 C 277.90625 -90.195312 263.148438 -68.359375 242.609375 -53.484375 C 222.066406 -38.609375 192.671875 -31.171875 154.421875 -31.171875 C 121.359375 -31.171875 91.957031 -36.953125 66.21875 -48.515625 C 40.488281 -60.085938 21.71875 -76.257812 9.90625 -97.03125 C -1.894531 -117.8125 -3.78125 -141.660156 4.25 -168.578125 C 8.5 -183.222656 16.523438 -193.613281 28.328125 -199.75 C 40.140625 -205.894531 53.128906 -208.613281 67.296875 -207.90625 C 81.460938 -207.195312 94.328125 -203.890625 105.890625 -197.984375 C 117.460938 -192.078125 125.726562 -184.046875 130.6875 -173.890625 C 135.644531 -163.742188 134.582031 -152.53125 127.5 -140.25 C 120.882812 -127.96875 116.75 -116.039062 115.09375 -104.46875 C 113.445312 -92.90625 114.628906 -83.34375 118.640625 -75.78125 C 122.660156 -68.226562 129.628906 -64.453125 139.546875 -64.453125 C 152.296875 -64.453125 162.328125 -70 169.640625 -81.09375 C 176.960938 -92.195312 182.273438 -106.601562 185.578125 -124.3125 C 188.890625 -142.019531 190.660156 -161.144531 190.890625 -181.6875 C 191.128906 -202.226562 190.304688 -222.0625 188.421875 -241.1875 C 186.535156 -260.3125 184.054688 -276.957031 180.984375 -291.125 C 177.910156 -305.289062 174.722656 -314.738281 171.421875 -319.46875 C 168.109375 -323.71875 164.914062 -329.144531 161.84375 -335.75 C 158.78125 -342.363281 157.25 -348.503906 157.25 -354.171875 C 157.25 -363.140625 161.144531 -369.984375 168.9375 -374.703125 C 176.726562 -379.429688 187 -382.617188 199.75 -384.265625 C 212.5 -385.921875 225.957031 -386.75 240.125 -386.75 L 253.59375 -386.75 C 262.5625 -386.28125 271.175781 -385.691406 279.4375 -384.984375 C 287.707031 -384.273438 294.910156 -382.976562 301.046875 -381.09375 C 308.597656 -379.195312 315.085938 -376.710938 320.515625 -373.640625 C 325.953125 -370.578125 328.90625 -366.6875 329.375 -361.96875 Z M 329.375 -361.96875 "/></g></g></g></g></g></g><g clip-path="url(#bce9987730)"><g transform="matrix(1, 0, 0, 1, 45, 331)"><g clip-path="url(#e749eb5d96)"><g fill="#ffffff" fill-opacity="1"><g transform="translate(2.524008, 538.490873)"><g><path d="M 322.296875 -160.796875 C 327.492188 -166.929688 333.039062 -170.46875 338.9375 -171.40625 C 344.84375 -172.351562 349.679688 -171.644531 353.453125 -169.28125 C 357.234375 -166.925781 358.414062 -163.625 357 -159.375 C 349.914062 -134.820312 337.753906 -112.863281 320.515625 -93.5 C 303.285156 -74.132812 282.863281 -58.90625 259.25 -47.8125 C 235.644531 -36.71875 209.910156 -31.171875 182.046875 -31.171875 C 148.515625 -31.171875 117.9375 -39.195312 90.3125 -55.25 C 62.6875 -71.300781 40.726562 -92.785156 24.4375 -119.703125 C 8.144531 -146.617188 0 -176.375 0 -208.96875 C 0 -241.550781 8.144531 -271.300781 24.4375 -298.21875 C 40.726562 -325.132812 62.6875 -346.617188 90.3125 -362.671875 C 117.9375 -378.722656 148.515625 -386.75 182.046875 -386.75 C 216.992188 -386.75 249.222656 -377.894531 278.734375 -360.1875 C 308.242188 -342.476562 329.847656 -318.988281 343.546875 -289.71875 C 350.628906 -275.550781 352.046875 -262.328125 347.796875 -250.046875 C 343.546875 -237.765625 335.867188 -227.375 324.765625 -218.875 C 313.671875 -210.375 301.273438 -204.472656 287.578125 -201.171875 C 273.890625 -197.867188 260.785156 -197.75 248.265625 -200.8125 C 235.753906 -203.882812 226.078125 -210.96875 219.234375 -222.0625 C 212.390625 -233.164062 210.382812 -248.867188 213.21875 -269.171875 C 215.570312 -285.222656 215.097656 -299.859375 211.796875 -313.078125 C 208.492188 -326.304688 203.414062 -336.695312 196.5625 -344.25 C 189.71875 -351.8125 181.804688 -354.644531 172.828125 -352.75 C 161.492188 -350.863281 151.34375 -342.597656 142.375 -327.953125 C 133.40625 -313.316406 126.910156 -294.546875 122.890625 -271.640625 C 118.878906 -248.742188 118.765625 -224.070312 122.546875 -197.625 C 126.316406 -171.65625 133.75 -151.703125 144.84375 -137.765625 C 155.945312 -123.835938 169.289062 -114.75 184.875 -110.5 C 200.457031 -106.25 216.75 -105.773438 233.75 -109.078125 C 250.75 -112.390625 267.039062 -118.648438 282.625 -127.859375 C 298.207031 -137.066406 311.429688 -148.046875 322.296875 -160.796875 Z M 322.296875 -160.796875 "/></g></g></g></g></g></g></g></g></svg>