<svg xmlns="http://www.w3.org/2000/svg" xmlns:xlink="http://www.w3.org/1999/xlink" width="1080" zoomAndPan="magnify" viewBox="0 0 810 809.999993" height="1080" preserveAspectRatio="xMidYMid meet" version="1.0"><defs><g/><clipPath id="a5f97cf1dd"><path d="M 25.464844 8.53125 L 784.535156 8.53125 L 784.535156 801.46875 L 25.464844 801.46875 Z M 25.464844 8.53125 " clip-rule="nonzero"/></clipPath><clipPath id="6de06dd8d8"><path d="M 0.464844 0.53125 L 759.535156 0.53125 L 759.535156 793 L 0.464844 793 Z M 0.464844 0.53125 " clip-rule="nonzero"/></clipPath><clipPath id="9a5bef4bb2"><rect x="0" width="760" y="0" height="794"/></clipPath><clipPath id="7cf35b3640"><rect x="0" width="741" y="0" height="219"/></clipPath><clipPath id="72aa2e9573"><rect x="0" width="430" y="0" height="219"/></clipPath></defs><rect x="-81" width="972" fill="#ffffff" y="-80.999999" height="971.999992" fill-opacity="1"/><rect x="-81" width="972" fill="#ffffff" y="-80.999999" height="971.999992" fill-opacity="1"/><g clip-path="url(#a5f97cf1dd)"><g transform="matrix(1, 0, 0, 1, 25, 8)"><g clip-path="url(#9a5bef4bb2)"><g clip-path="url(#6de06dd8d8)"><path fill="#f8f2ec" d="M 0.464844 0.53125 L 759.535156 0.53125 L 759.535156 792.222656 L 0.464844 792.222656 Z M 0.464844 0.53125 " fill-opacity="1" fill-rule="nonzero"/></g></g></g></g><g transform="matrix(1, 0, 0, 1, 10, 203)"><g clip-path="url(#7cf35b3640)"><g fill="#000000" fill-opacity="1"><g transform="translate(1.336525, 161.547817)"><g/></g></g><g fill="#000000" fill-opacity="1"><g transform="translate(56.719356, 161.547817)"><g><path d="M 103.046875 -71.265625 C 106.722656 -67.585938 109.8125 -62.695312 112.3125 -56.59375 C 114.8125 -50.488281 117.160156 -44.085938 119.359375 -37.390625 C 121.566406 -30.703125 123.882812 -24.414062 126.3125 -18.53125 C 128.738281 -12.644531 131.679688 -8.046875 135.140625 -4.734375 C 138.597656 -1.429688 142.828125 -0.296875 147.828125 -1.328125 L 147.828125 0 C 145.035156 2.789062 141.140625 4.992188 136.140625 6.609375 C 131.140625 8.234375 125.695312 9.117188 119.8125 9.265625 C 112.601562 9.265625 106.457031 7.71875 101.375 4.625 C 96.300781 1.539062 92.035156 -2.535156 88.578125 -7.609375 C 85.128906 -12.679688 82.265625 -18.269531 79.984375 -24.375 C 77.703125 -30.476562 75.785156 -36.582031 74.234375 -42.6875 C 72.691406 -48.789062 71.257812 -54.414062 69.9375 -59.5625 C 68.613281 -64.71875 67.179688 -68.835938 65.640625 -71.921875 C 64.097656 -75.015625 62.148438 -76.5625 59.796875 -76.5625 L 58.6875 -76.5625 C 58.6875 -74.644531 58.6875 -72.804688 58.6875 -71.046875 C 58.6875 -69.285156 58.6875 -67.664062 58.6875 -66.1875 L 58.6875 -14.5625 C 58.6875 -10.882812 60.007812 -7.757812 62.65625 -5.1875 C 65.3125 -2.613281 68.476562 -1.328125 72.15625 -1.328125 L 72.15625 0 L 6.625 0 L 6.625 -1.328125 C 10.300781 -1.328125 13.425781 -2.613281 16 -5.1875 C 18.570312 -7.757812 19.859375 -10.882812 19.859375 -14.5625 C 19.859375 -26.1875 19.859375 -36.148438 19.859375 -44.453125 C 19.859375 -52.765625 19.859375 -60.300781 19.859375 -67.0625 C 19.859375 -73.832031 19.859375 -80.597656 19.859375 -87.359375 C 19.859375 -94.128906 19.859375 -101.671875 19.859375 -109.984375 C 19.859375 -118.296875 19.859375 -128.265625 19.859375 -139.890625 C 19.859375 -143.566406 18.570312 -146.691406 16 -149.265625 C 13.425781 -151.835938 10.300781 -153.125 6.625 -153.125 L 6.625 -154.453125 L 94.4375 -154.453125 C 102.082031 -154.453125 109.03125 -152.722656 115.28125 -149.265625 C 121.53125 -145.804688 126.53125 -141.171875 130.28125 -135.359375 C 134.039062 -129.546875 135.921875 -123.039062 135.921875 -115.84375 C 135.921875 -108.78125 134.039062 -102.304688 130.28125 -96.421875 C 126.53125 -90.535156 121.53125 -85.863281 115.28125 -82.40625 C 109.03125 -78.945312 102.082031 -77.21875 94.4375 -77.21875 L 91.125 -77.21875 C 91.125 -77.21875 92.445312 -76.921875 95.09375 -76.328125 C 97.738281 -75.742188 100.390625 -74.054688 103.046875 -71.265625 Z M 73.25 -77.890625 C 77.664062 -77.890625 81.640625 -79.578125 85.171875 -82.953125 C 88.703125 -86.335938 91.53125 -90.898438 93.65625 -96.640625 C 95.789062 -102.378906 96.859375 -108.703125 96.859375 -115.609375 C 96.859375 -122.523438 95.789062 -128.8125 93.65625 -134.46875 C 91.53125 -140.132812 88.703125 -144.660156 85.171875 -148.046875 C 81.640625 -151.429688 77.664062 -153.125 73.25 -153.125 L 58.6875 -153.125 C 58.6875 -139.59375 58.6875 -128.410156 58.6875 -119.578125 C 58.6875 -110.753906 58.6875 -103.695312 58.6875 -98.40625 C 58.6875 -93.113281 58.6875 -89.140625 58.6875 -86.484375 C 58.6875 -83.835938 58.6875 -81.925781 58.6875 -80.75 C 58.6875 -79.570312 58.6875 -78.617188 58.6875 -77.890625 Z M 73.25 -77.890625 "/></g></g></g><g fill="#000000" fill-opacity="1"><g transform="translate(193.701995, 161.547817)"><g><path d="M 76.78125 -14.125 C 81.050781 -14.125 85.132812 -15.148438 89.03125 -17.203125 C 92.925781 -19.265625 96.421875 -22.132812 99.515625 -25.8125 L 100.609375 -25.15625 C 96.203125 -17.207031 90.242188 -10.84375 82.734375 -6.0625 C 75.234375 -1.28125 67 1.109375 58.03125 1.109375 C 48.757812 1.109375 40.335938 -1.390625 32.765625 -6.390625 C 25.191406 -11.398438 19.125 -18.132812 14.5625 -26.59375 C 10 -35.050781 7.71875 -44.425781 7.71875 -54.71875 C 7.71875 -65.007812 10 -74.382812 14.5625 -82.84375 C 19.125 -91.300781 25.191406 -98.03125 32.765625 -103.03125 C 40.335938 -108.039062 48.757812 -110.546875 58.03125 -110.546875 C 66.113281 -110.546875 73.351562 -108.628906 79.75 -104.796875 C 86.15625 -100.972656 91.523438 -95.789062 95.859375 -89.25 C 100.203125 -82.707031 103.179688 -75.242188 104.796875 -66.859375 L 40.8125 -66.859375 C 40.8125 -57.148438 42.429688 -48.285156 45.671875 -40.265625 C 48.910156 -32.242188 53.25 -25.878906 58.6875 -21.171875 C 64.132812 -16.472656 70.164062 -14.125 76.78125 -14.125 Z M 58.03125 -109.21875 C 54.9375 -109.21875 52.394531 -108.078125 50.40625 -105.796875 C 48.425781 -103.515625 46.773438 -100.570312 45.453125 -96.96875 C 44.128906 -93.363281 43.171875 -89.648438 42.578125 -85.828125 C 41.992188 -82.003906 41.550781 -78.472656 41.25 -75.234375 C 40.957031 -72.003906 40.8125 -69.648438 40.8125 -68.171875 L 74.796875 -68.171875 C 73.472656 -95.535156 67.882812 -109.21875 58.03125 -109.21875 Z M 58.03125 -109.21875 "/></g></g></g><g fill="#000000" fill-opacity="1"><g transform="translate(297.597917, 161.547817)"><g><path d="M 114.078125 -59.125 C 115.097656 -48.976562 114.0625 -39.492188 110.96875 -30.671875 C 107.882812 -21.847656 103.289062 -14.601562 97.1875 -8.9375 C 91.082031 -3.269531 83.988281 0 75.90625 0.875 C 70.90625 1.46875 66.015625 0.921875 61.234375 -0.765625 C 56.453125 -2.460938 51.925781 -4.925781 47.65625 -8.15625 L 47.65625 -4.640625 C 47.65625 -3.304688 47.210938 -2.195312 46.328125 -1.3125 C 45.453125 -0.4375 44.351562 0 43.03125 0 L 5.515625 0 L 5.515625 -1.328125 C 8.015625 -1.765625 10.144531 -3.007812 11.90625 -5.0625 C 13.675781 -7.125 14.5625 -9.484375 14.5625 -12.140625 L 14.5625 -136.796875 C 14.5625 -139.441406 13.675781 -141.796875 11.90625 -143.859375 C 10.144531 -145.921875 8.015625 -147.171875 5.515625 -147.609375 L 5.515625 -148.9375 L 43.25 -154.453125 C 43.394531 -154.453125 43.503906 -154.453125 43.578125 -154.453125 C 43.648438 -154.453125 43.757812 -154.453125 43.90625 -154.453125 C 46.40625 -154.453125 47.65625 -153.128906 47.65625 -150.484375 L 47.65625 -105.90625 C 52.363281 -108.40625 57.660156 -109.953125 63.546875 -110.546875 C 71.640625 -111.421875 79.363281 -109.648438 86.71875 -105.234375 C 94.070312 -100.828125 100.210938 -94.613281 105.140625 -86.59375 C 110.066406 -78.582031 113.046875 -69.425781 114.078125 -59.125 Z M 55.15625 -8.15625 C 60.007812 -8.15625 64.421875 -10.363281 68.390625 -14.78125 C 72.367188 -19.195312 75.535156 -25.117188 77.890625 -32.546875 C 80.242188 -39.972656 81.421875 -48.171875 81.421875 -57.140625 C 81.421875 -66.265625 80.242188 -74.503906 77.890625 -81.859375 C 75.535156 -89.210938 72.367188 -95.09375 68.390625 -99.5 C 64.421875 -103.914062 60.007812 -106.125 55.15625 -106.125 C 52.800781 -106.125 50.300781 -105.535156 47.65625 -104.359375 L 47.65625 -9.921875 C 50.300781 -8.742188 52.800781 -8.15625 55.15625 -8.15625 Z M 55.15625 -8.15625 "/></g></g></g><g fill="#000000" fill-opacity="1"><g transform="translate(413.40572, 161.547817)"><g><path d="M 14.5625 -12.140625 L 14.5625 -90.6875 C 14.5625 -93.476562 13.675781 -95.863281 11.90625 -97.84375 C 10.144531 -99.832031 8.015625 -101.050781 5.515625 -101.5 L 5.515625 -102.8125 L 43.25 -108.328125 C 43.394531 -108.328125 43.503906 -108.328125 43.578125 -108.328125 C 43.648438 -108.328125 43.757812 -108.328125 43.90625 -108.328125 C 46.40625 -108.328125 47.65625 -107.078125 47.65625 -104.578125 L 47.65625 -12.140625 C 47.65625 -9.484375 48.535156 -7.125 50.296875 -5.0625 C 52.066406 -3.007812 54.203125 -1.765625 56.703125 -1.328125 L 56.703125 0 L 5.515625 0 L 5.515625 -1.328125 C 8.015625 -1.765625 10.144531 -3.007812 11.90625 -5.0625 C 13.675781 -7.125 14.5625 -9.484375 14.5625 -12.140625 Z M 48.3125 -137.234375 C 48.3125 -132.679688 46.617188 -128.710938 43.234375 -125.328125 C 39.859375 -121.941406 35.816406 -120.25 31.109375 -120.25 C 26.398438 -120.25 22.390625 -121.941406 19.078125 -125.328125 C 15.773438 -128.710938 14.125 -132.679688 14.125 -137.234375 C 14.125 -141.941406 15.773438 -145.988281 19.078125 -149.375 C 22.390625 -152.757812 26.398438 -154.453125 31.109375 -154.453125 C 35.816406 -154.453125 39.859375 -152.757812 43.234375 -149.375 C 46.617188 -145.988281 48.3125 -141.941406 48.3125 -137.234375 Z M 48.3125 -137.234375 "/></g></g></g><g fill="#000000" fill-opacity="1"><g transform="translate(469.213006, 161.547817)"><g><path d="M 75.90625 -112.75 C 80.601562 -112.601562 84.644531 -110.910156 88.03125 -107.671875 C 91.414062 -104.429688 93.109375 -100.460938 93.109375 -95.765625 C 93.109375 -91.054688 91.414062 -87.007812 88.03125 -83.625 C 84.644531 -80.238281 80.601562 -78.546875 75.90625 -78.546875 C 71.34375 -78.546875 67.367188 -80.238281 63.984375 -83.625 C 60.597656 -87.007812 58.90625 -91.054688 58.90625 -95.765625 C 58.90625 -97.234375 59.015625 -98.332031 59.234375 -99.0625 C 59.460938 -99.800781 59.578125 -100.613281 59.578125 -101.5 C 59.578125 -103.695312 58.398438 -104.796875 56.046875 -104.796875 C 53.984375 -104.796875 51.1875 -103.914062 47.65625 -102.15625 L 47.65625 -12.140625 C 47.65625 -9.484375 48.535156 -7.125 50.296875 -5.0625 C 52.066406 -3.007812 54.203125 -1.765625 56.703125 -1.328125 L 56.703125 0 L 5.515625 0 L 5.515625 -1.328125 C 8.015625 -1.765625 10.144531 -3.007812 11.90625 -5.0625 C 13.675781 -7.125 14.5625 -9.484375 14.5625 -12.140625 L 14.5625 -90.6875 C 14.5625 -93.476562 13.675781 -95.863281 11.90625 -97.84375 C 10.144531 -99.832031 8.015625 -101.050781 5.515625 -101.5 L 5.515625 -102.8125 L 43.25 -108.328125 C 43.394531 -108.328125 43.503906 -108.328125 43.578125 -108.328125 C 43.648438 -108.328125 43.757812 -108.328125 43.90625 -108.328125 C 45.082031 -108.328125 46 -107.957031 46.65625 -107.21875 C 47.320312 -106.488281 47.65625 -105.609375 47.65625 -104.578125 L 47.65625 -103.484375 C 51.625 -105.535156 56.253906 -107.664062 61.546875 -109.875 C 66.847656 -112.082031 71.632812 -113.039062 75.90625 -112.75 Z M 75.90625 -112.75 "/></g></g></g><g fill="#000000" fill-opacity="1"><g transform="translate(559.211331, 161.547817)"><g><path d="M 59.578125 -7.9375 C 62.078125 -7.9375 64.28125 -8.597656 66.1875 -9.921875 L 66.1875 -8.390625 C 63.539062 -6.472656 59.9375 -4.410156 55.375 -2.203125 C 50.820312 0.00390625 45.457031 1.109375 39.28125 1.109375 C 32.507812 1.109375 26.695312 -1.316406 21.84375 -6.171875 C 16.988281 -11.023438 14.5625 -16.835938 14.5625 -23.609375 L 14.5625 -107.015625 L 5.515625 -107.015625 L 5.515625 -108.328125 C 13.753906 -108.328125 21.441406 -110.128906 28.578125 -113.734375 C 35.710938 -117.335938 41.628906 -122.15625 46.328125 -128.1875 L 47.65625 -128.1875 L 47.65625 -108.328125 L 62 -108.328125 L 62 -107.015625 L 47.65625 -107.015625 L 47.65625 -19.859375 C 47.65625 -16.617188 48.832031 -13.820312 51.1875 -11.46875 C 53.539062 -9.113281 56.335938 -7.9375 59.578125 -7.9375 Z M 59.578125 -7.9375 "/></g></g></g><g fill="#000000" fill-opacity="1"><g transform="translate(622.298103, 161.547817)"><g><path d="M 105.6875 -12.140625 C 105.6875 -9.484375 106.566406 -7.125 108.328125 -5.0625 C 110.097656 -3.007812 112.234375 -1.765625 114.734375 -1.328125 L 114.734375 0 L 63.546875 0 L 63.546875 -1.328125 C 66.046875 -1.765625 68.175781 -3.007812 69.9375 -5.0625 C 71.707031 -7.125 72.59375 -9.484375 72.59375 -12.140625 L 72.59375 -77.21875 C 72.59375 -81.039062 73.546875 -84.054688 75.453125 -86.265625 C 77.367188 -88.472656 79.28125 -90.566406 81.1875 -92.546875 C 83.101562 -94.535156 84.0625 -96.859375 84.0625 -99.515625 C 84.0625 -102.015625 82.664062 -103.925781 79.875 -105.25 C 77.082031 -106.570312 73.476562 -107.234375 69.0625 -107.234375 C 63.613281 -107.234375 58.867188 -106.457031 54.828125 -104.90625 C 50.785156 -103.363281 48.394531 -102.445312 47.65625 -102.15625 L 47.65625 -12.140625 C 47.65625 -9.484375 48.535156 -7.125 50.296875 -5.0625 C 52.066406 -3.007812 54.203125 -1.765625 56.703125 -1.328125 L 56.703125 0 L 5.515625 0 L 5.515625 -1.328125 C 8.015625 -1.765625 10.144531 -3.007812 11.90625 -5.0625 C 13.675781 -7.125 14.5625 -9.484375 14.5625 -12.140625 L 14.5625 -136.796875 C 14.5625 -139.441406 13.675781 -141.796875 11.90625 -143.859375 C 10.144531 -145.921875 8.015625 -147.171875 5.515625 -147.609375 L 5.515625 -148.9375 L 43.25 -154.453125 C 43.394531 -154.453125 43.503906 -154.453125 43.578125 -154.453125 C 43.648438 -154.453125 43.757812 -154.453125 43.90625 -154.453125 C 46.40625 -154.453125 47.65625 -153.128906 47.65625 -150.484375 L 47.65625 -103.703125 C 51.78125 -105.765625 56.378906 -107.421875 61.453125 -108.671875 C 66.523438 -109.921875 71.632812 -110.546875 76.78125 -110.546875 C 81.925781 -110.546875 86.707031 -109.550781 91.125 -107.5625 C 95.539062 -105.570312 99.070312 -102.40625 101.71875 -98.0625 C 104.363281 -93.726562 105.6875 -87.8125 105.6875 -80.3125 Z M 105.6875 -12.140625 "/></g></g></g></g></g><g transform="matrix(1, 0, 0, 1, 187, 387)"><g clip-path="url(#72aa2e9573)"><g fill="#000000" fill-opacity="1"><g transform="translate(3.418499, 161.572056)"><g><path d="M 6.625 -154.453125 L 114.515625 -154.453125 L 114.515625 -112.75 L 113.1875 -112.75 C 111.28125 -120.539062 107.785156 -127.453125 102.703125 -133.484375 C 97.628906 -139.515625 91.488281 -144.296875 84.28125 -147.828125 C 77.070312 -151.359375 69.273438 -153.125 60.890625 -153.125 L 58.6875 -153.125 L 58.6875 -77.890625 C 66.78125 -77.890625 73.914062 -80.351562 80.09375 -85.28125 C 86.269531 -90.207031 90.316406 -96.347656 92.234375 -103.703125 L 93.546875 -103.703125 L 93.546875 -50.75 L 92.234375 -50.75 C 90.316406 -58.101562 86.269531 -64.242188 80.09375 -69.171875 C 73.914062 -74.097656 66.78125 -76.5625 58.6875 -76.5625 L 58.6875 -14.5625 C 58.6875 -10.882812 60.007812 -7.757812 62.65625 -5.1875 C 65.3125 -2.613281 68.476562 -1.328125 72.15625 -1.328125 L 72.15625 0 L 6.625 0 L 6.625 -1.328125 C 10.300781 -1.328125 13.425781 -2.613281 16 -5.1875 C 18.570312 -7.757812 19.859375 -10.882812 19.859375 -14.5625 L 19.859375 -139.890625 C 19.859375 -143.566406 18.570312 -146.691406 16 -149.265625 C 13.425781 -151.835938 10.300781 -153.125 6.625 -153.125 Z M 6.625 -154.453125 "/></g></g></g><g fill="#000000" fill-opacity="1"><g transform="translate(115.916507, 161.572056)"><g><path d="M 14.5625 -12.140625 L 14.5625 -90.6875 C 14.5625 -93.476562 13.675781 -95.863281 11.90625 -97.84375 C 10.144531 -99.832031 8.015625 -101.050781 5.515625 -101.5 L 5.515625 -102.8125 L 43.25 -108.328125 C 43.394531 -108.328125 43.503906 -108.328125 43.578125 -108.328125 C 43.648438 -108.328125 43.757812 -108.328125 43.90625 -108.328125 C 46.40625 -108.328125 47.65625 -107.078125 47.65625 -104.578125 L 47.65625 -12.140625 C 47.65625 -9.484375 48.535156 -7.125 50.296875 -5.0625 C 52.066406 -3.007812 54.203125 -1.765625 56.703125 -1.328125 L 56.703125 0 L 5.515625 0 L 5.515625 -1.328125 C 8.015625 -1.765625 10.144531 -3.007812 11.90625 -5.0625 C 13.675781 -7.125 14.5625 -9.484375 14.5625 -12.140625 Z M 48.3125 -137.234375 C 48.3125 -132.679688 46.617188 -128.710938 43.234375 -125.328125 C 39.859375 -121.941406 35.816406 -120.25 31.109375 -120.25 C 26.398438 -120.25 22.390625 -121.941406 19.078125 -125.328125 C 15.773438 -128.710938 14.125 -132.679688 14.125 -137.234375 C 14.125 -141.941406 15.773438 -145.988281 19.078125 -149.375 C 22.390625 -152.757812 26.398438 -154.453125 31.109375 -154.453125 C 35.816406 -154.453125 39.859375 -152.757812 43.234375 -149.375 C 46.617188 -145.988281 48.3125 -141.941406 48.3125 -137.234375 Z M 48.3125 -137.234375 "/></g></g></g><g fill="#000000" fill-opacity="1"><g transform="translate(171.723793, 161.572056)"><g><path d="M 47.65625 -150.484375 L 47.65625 -12.140625 C 47.65625 -9.484375 48.535156 -7.125 50.296875 -5.0625 C 52.066406 -3.007812 54.203125 -1.765625 56.703125 -1.328125 L 56.703125 0 L 5.515625 0 L 5.515625 -1.328125 C 8.015625 -1.765625 10.144531 -3.007812 11.90625 -5.0625 C 13.675781 -7.125 14.5625 -9.484375 14.5625 -12.140625 L 14.5625 -136.796875 C 14.5625 -139.441406 13.675781 -141.796875 11.90625 -143.859375 C 10.144531 -145.921875 8.015625 -147.171875 5.515625 -147.609375 L 5.515625 -148.9375 L 43.25 -154.453125 C 43.394531 -154.453125 43.503906 -154.453125 43.578125 -154.453125 C 43.648438 -154.453125 43.757812 -154.453125 43.90625 -154.453125 C 46.40625 -154.453125 47.65625 -153.128906 47.65625 -150.484375 Z M 47.65625 -150.484375 "/></g></g></g><g fill="#000000" fill-opacity="1"><g transform="translate(227.53108, 161.572056)"><g><path d="M 76.78125 -14.125 C 81.050781 -14.125 85.132812 -15.148438 89.03125 -17.203125 C 92.925781 -19.265625 96.421875 -22.132812 99.515625 -25.8125 L 100.609375 -25.15625 C 96.203125 -17.207031 90.242188 -10.84375 82.734375 -6.0625 C 75.234375 -1.28125 67 1.109375 58.03125 1.109375 C 48.757812 1.109375 40.335938 -1.390625 32.765625 -6.390625 C 25.191406 -11.398438 19.125 -18.132812 14.5625 -26.59375 C 10 -35.050781 7.71875 -44.425781 7.71875 -54.71875 C 7.71875 -65.007812 10 -74.382812 14.5625 -82.84375 C 19.125 -91.300781 25.191406 -98.03125 32.765625 -103.03125 C 40.335938 -108.039062 48.757812 -110.546875 58.03125 -110.546875 C 66.113281 -110.546875 73.351562 -108.628906 79.75 -104.796875 C 86.15625 -100.972656 91.523438 -95.789062 95.859375 -89.25 C 100.203125 -82.707031 103.179688 -75.242188 104.796875 -66.859375 L 40.8125 -66.859375 C 40.8125 -57.148438 42.429688 -48.285156 45.671875 -40.265625 C 48.910156 -32.242188 53.25 -25.878906 58.6875 -21.171875 C 64.132812 -16.472656 70.164062 -14.125 76.78125 -14.125 Z M 58.03125 -109.21875 C 54.9375 -109.21875 52.394531 -108.078125 50.40625 -105.796875 C 48.425781 -103.515625 46.773438 -100.570312 45.453125 -96.96875 C 44.128906 -93.363281 43.171875 -89.648438 42.578125 -85.828125 C 41.992188 -82.003906 41.550781 -78.472656 41.25 -75.234375 C 40.957031 -72.003906 40.8125 -69.648438 40.8125 -68.171875 L 74.796875 -68.171875 C 73.472656 -95.535156 67.882812 -109.21875 58.03125 -109.21875 Z M 58.03125 -109.21875 "/></g></g></g><g fill="#000000" fill-opacity="1"><g transform="translate(333.633345, 161.572056)"><g><path d="M 90.90625 -29.78125 C 91.34375 -24.050781 89.648438 -18.832031 85.828125 -14.125 C 82.003906 -9.414062 76.851562 -5.695312 70.375 -2.96875 C 63.90625 -0.25 56.847656 1.109375 49.203125 1.109375 C 41.703125 1.109375 34.828125 -0.140625 28.578125 -2.640625 C 22.328125 -5.148438 17.285156 -8.570312 13.453125 -12.90625 C 9.628906 -17.25 7.71875 -22.140625 7.71875 -27.578125 C 7.71875 -32.285156 9.410156 -36.289062 12.796875 -39.59375 C 16.179688 -42.90625 20.15625 -44.5625 24.71875 -44.5625 C 29.414062 -44.5625 33.457031 -42.90625 36.84375 -39.59375 C 40.226562 -36.289062 41.921875 -32.285156 41.921875 -27.578125 C 41.921875 -23.609375 41.070312 -20.554688 39.375 -18.421875 C 37.6875 -16.285156 35.957031 -14.519531 34.1875 -13.125 C 32.425781 -11.726562 31.546875 -10.070312 31.546875 -8.15625 C 31.546875 -6.539062 32.351562 -5 33.96875 -3.53125 C 35.59375 -2.0625 37.507812 -1.175781 39.71875 -0.875 C 41.1875 -0.726562 42.582031 -0.582031 43.90625 -0.4375 C 45.226562 -0.289062 46.992188 -0.21875 49.203125 -0.21875 C 53.171875 -0.21875 56.550781 -1.613281 59.34375 -4.40625 C 62.144531 -7.207031 63.546875 -10.59375 63.546875 -14.5625 C 63.546875 -18.238281 62.179688 -21.804688 59.453125 -25.265625 C 56.734375 -28.722656 53.273438 -32.175781 49.078125 -35.625 C 44.890625 -39.082031 40.40625 -42.648438 35.625 -46.328125 C 30.851562 -50.003906 26.367188 -53.789062 22.171875 -57.6875 C 17.984375 -61.59375 14.523438 -65.785156 11.796875 -70.265625 C 9.078125 -74.753906 7.71875 -79.570312 7.71875 -84.71875 C 7.71875 -90.601562 9.703125 -95.457031 13.671875 -99.28125 C 17.648438 -103.113281 22.503906 -105.945312 28.234375 -107.78125 C 33.972656 -109.625 39.566406 -110.546875 45.015625 -110.546875 C 50.304688 -110.546875 54.753906 -110.03125 58.359375 -109 C 61.960938 -107.96875 65.195312 -107.007812 68.0625 -106.125 C 70.9375 -105.238281 73.914062 -104.875 77 -105.03125 C 78.175781 -105.175781 79.242188 -105.46875 80.203125 -105.90625 C 81.160156 -106.34375 81.929688 -106.859375 82.515625 -107.453125 L 83.625 -107.453125 L 83.625 -71.703125 C 83.625 -71.703125 83.507812 -71.703125 83.28125 -71.703125 C 83.0625 -71.703125 82.804688 -71.703125 82.515625 -71.703125 C 81.640625 -76.117188 80.171875 -81.046875 78.109375 -86.484375 C 76.046875 -91.929688 72.988281 -96.785156 68.9375 -101.046875 C 64.894531 -105.316406 59.273438 -107.894531 52.078125 -108.78125 C 48.242188 -109.363281 44.929688 -108.625 42.140625 -106.5625 C 39.347656 -104.507812 37.804688 -101.128906 37.515625 -96.421875 C 37.210938 -91.710938 38.71875 -87.367188 42.03125 -83.390625 C 45.34375 -79.421875 49.570312 -75.488281 54.71875 -71.59375 C 59.863281 -67.695312 65.117188 -63.6875 70.484375 -59.5625 C 75.859375 -55.445312 80.457031 -50.960938 84.28125 -46.109375 C 88.101562 -41.253906 90.3125 -35.8125 90.90625 -29.78125 Z M 90.90625 -29.78125 "/></g></g></g></g></g></svg>